<svg xmlns="http://www.w3.org/2000/svg" width="1000" height="376" viewBox="0 0 1000 376" role="img" aria-label="Render pipeline, before and after">
<rect width="1000" height="376" fill="#0f3b73"/>
<g stroke="#e8f1ff" stroke-opacity=".07" stroke-width="1"><line x1="0" y1="0" x2="0" y2="376"/><line x1="40" y1="0" x2="40" y2="376"/><line x1="80" y1="0" x2="80" y2="376"/><line x1="120" y1="0" x2="120" y2="376"/><line x1="160" y1="0" x2="160" y2="376"/><line x1="200" y1="0" x2="200" y2="376"/><line x1="240" y1="0" x2="240" y2="376"/><line x1="280" y1="0" x2="280" y2="376"/><line x1="320" y1="0" x2="320" y2="376"/><line x1="360" y1="0" x2="360" y2="376"/><line x1="400" y1="0" x2="400" y2="376"/><line x1="440" y1="0" x2="440" y2="376"/><line x1="480" y1="0" x2="480" y2="376"/><line x1="520" y1="0" x2="520" y2="376"/><line x1="560" y1="0" x2="560" y2="376"/><line x1="600" y1="0" x2="600" y2="376"/><line x1="640" y1="0" x2="640" y2="376"/><line x1="680" y1="0" x2="680" y2="376"/><line x1="720" y1="0" x2="720" y2="376"/><line x1="760" y1="0" x2="760" y2="376"/><line x1="800" y1="0" x2="800" y2="376"/><line x1="840" y1="0" x2="840" y2="376"/><line x1="880" y1="0" x2="880" y2="376"/><line x1="920" y1="0" x2="920" y2="376"/><line x1="960" y1="0" x2="960" y2="376"/><line x1="0" y1="0" x2="1000" y2="0"/><line x1="0" y1="40" x2="1000" y2="40"/><line x1="0" y1="80" x2="1000" y2="80"/><line x1="0" y1="120" x2="1000" y2="120"/><line x1="0" y1="160" x2="1000" y2="160"/><line x1="0" y1="200" x2="1000" y2="200"/><line x1="0" y1="240" x2="1000" y2="240"/><line x1="0" y1="280" x2="1000" y2="280"/><line x1="0" y1="320" x2="1000" y2="320"/><line x1="0" y1="360" x2="1000" y2="360"/></g>
<rect x="12" y="12" width="976" height="352" fill="none" stroke="#e8f1ff" stroke-width="2"/>
<text x="36" y="52" font-family="ui-monospace, SFMono-Regular, Menlo, Consolas, 'Liberation Mono', monospace" font-size="15" font-weight="700" letter-spacing="3" fill="#ffc857">FIG. 2</text>
<text x="118" y="52" font-family="ui-monospace, SFMono-Regular, Menlo, Consolas, 'Liberation Mono', monospace" font-size="15" letter-spacing="2" fill="#9fb4d6">RENDER PIPELINE, BEFORE AND AFTER</text>
<text x="36" y="92" font-family="ui-monospace, SFMono-Regular, Menlo, Consolas, 'Liberation Mono', monospace" font-size="13" letter-spacing="2" fill="#9fb4d6">BEFORE</text><rect x="36" y="104" width="190" height="64" fill="none" stroke="#e8f1ff" stroke-width="2"/><text x="131.0" y="134.0" text-anchor="middle" font-family="'Arial Narrow', 'Helvetica Neue', Arial, sans-serif" font-size="17" font-weight="700" fill="#e8f1ff">Headless Chrome</text><text x="131.0" y="154.0" text-anchor="middle" font-family="ui-monospace, SFMono-Regular, Menlo, Consolas, 'Liberation Mono', monospace" font-size="11" fill="#9fb4d6">CPU raster (SwiftShader)</text><path d="M232 136 H256 M247 130 L256 136 L247 142" fill="none" stroke="#e8f1ff" stroke-width="2"/><rect x="262" y="104" width="170" height="64" fill="none" stroke="#e8f1ff" stroke-width="2"/><text x="347.0" y="134.0" text-anchor="middle" font-family="'Arial Narrow', 'Helvetica Neue', Arial, sans-serif" font-size="17" font-weight="700" fill="#e8f1ff">Screenshot</text><text x="347.0" y="154.0" text-anchor="middle" font-family="ui-monospace, SFMono-Regular, Menlo, Consolas, 'Liberation Mono', monospace" font-size="11" fill="#9fb4d6">PNG per frame</text><path d="M438 136 H462 M453 130 L462 136 L453 142" fill="none" stroke="#e8f1ff" stroke-width="2"/><rect x="468" y="104" width="150" height="64" fill="none" stroke="#e8f1ff" stroke-width="2"/><text x="543.0" y="134.0" text-anchor="middle" font-family="'Arial Narrow', 'Helvetica Neue', Arial, sans-serif" font-size="17" font-weight="700" fill="#e8f1ff">Disk</text><text x="543.0" y="154.0" text-anchor="middle" font-family="ui-monospace, SFMono-Regular, Menlo, Consolas, 'Liberation Mono', monospace" font-size="11" fill="#9fb4d6">7,800 PNGs</text><path d="M624 136 H648 M639 130 L648 136 L639 142" fill="none" stroke="#e8f1ff" stroke-width="2"/><rect x="654" y="104" width="170" height="64" fill="none" stroke="#e8f1ff" stroke-width="2"/><text x="739.0" y="134.0" text-anchor="middle" font-family="'Arial Narrow', 'Helvetica Neue', Arial, sans-serif" font-size="17" font-weight="700" fill="#e8f1ff">One encode</text><text x="739.0" y="154.0" text-anchor="middle" font-family="ui-monospace, SFMono-Regular, Menlo, Consolas, 'Liberation Mono', monospace" font-size="11" fill="#9fb4d6">serial x264</text><path d="M830 136 H854 M845 130 L854 136 L845 142" fill="none" stroke="#e8f1ff" stroke-width="2"/><rect x="860" y="104" width="104" height="64" fill="none" stroke="#e8f1ff" stroke-width="2"/><text x="912.0" y="141.0" text-anchor="middle" font-family="'Arial Narrow', 'Helvetica Neue', Arial, sans-serif" font-size="17" font-weight="700" fill="#e8f1ff">brag.mp4</text><text x="36" y="214" font-family="ui-monospace, SFMono-Regular, Menlo, Consolas, 'Liberation Mono', monospace" font-size="13" letter-spacing="2" fill="#ffc857">BRAG-SCALED</text><rect x="36" y="226" width="190" height="64" fill="none" stroke="#ffc857" stroke-width="2"/><text x="131.0" y="256.0" text-anchor="middle" font-family="'Arial Narrow', 'Helvetica Neue', Arial, sans-serif" font-size="17" font-weight="700" fill="#ffc857">12 browsers</text><text x="131.0" y="276.0" text-anchor="middle" font-family="ui-monospace, SFMono-Regular, Menlo, Consolas, 'Liberation Mono', monospace" font-size="11" fill="#9fb4d6">GPU raster (ANGLE)</text><path d="M232 258 H256 M247 252 L256 258 L247 264" fill="none" stroke="#e8f1ff" stroke-width="2"/><rect x="262" y="226" width="170" height="64" fill="none" stroke="#ffc857" stroke-width="2"/><text x="347.0" y="256.0" text-anchor="middle" font-family="'Arial Narrow', 'Helvetica Neue', Arial, sans-serif" font-size="17" font-weight="700" fill="#ffc857">Raw CDP</text><text x="347.0" y="276.0" text-anchor="middle" font-family="ui-monospace, SFMono-Regular, Menlo, Consolas, 'Liberation Mono', monospace" font-size="11" fill="#9fb4d6">JPEG q100</text><path d="M438 258 H462 M453 252 L462 258 L453 264" fill="none" stroke="#e8f1ff" stroke-width="2"/><rect x="468" y="226" width="150" height="64" fill="none" stroke="#ffc857" stroke-width="2"/><text x="543.0" y="256.0" text-anchor="middle" font-family="'Arial Narrow', 'Helvetica Neue', Arial, sans-serif" font-size="17" font-weight="700" fill="#ffc857">Piped</text><text x="543.0" y="276.0" text-anchor="middle" font-family="ui-monospace, SFMono-Regular, Menlo, Consolas, 'Liberation Mono', monospace" font-size="11" fill="#9fb4d6">MJPEG segments</text><path d="M624 258 H648 M639 252 L648 258 L639 264" fill="none" stroke="#e8f1ff" stroke-width="2"/><rect x="654" y="226" width="170" height="64" fill="none" stroke="#ffc857" stroke-width="2"/><text x="739.0" y="256.0" text-anchor="middle" font-family="'Arial Narrow', 'Helvetica Neue', Arial, sans-serif" font-size="17" font-weight="700" fill="#ffc857">Parallel NVENC</text><text x="739.0" y="276.0" text-anchor="middle" font-family="ui-monospace, SFMono-Regular, Menlo, Consolas, 'Liberation Mono', monospace" font-size="11" fill="#9fb4d6">after capture</text><path d="M830 258 H854 M845 252 L854 258 L845 264" fill="none" stroke="#e8f1ff" stroke-width="2"/><rect x="860" y="226" width="104" height="64" fill="none" stroke="#ffc857" stroke-width="2"/><text x="912.0" y="263.0" text-anchor="middle" font-family="'Arial Narrow', 'Helvetica Neue', Arial, sans-serif" font-size="17" font-weight="700" fill="#ffc857">brag.mp4</text><text x="36" y="332" font-family="ui-monospace, SFMono-Regular, Menlo, Consolas, 'Liberation Mono', monospace" font-size="12" fill="#9fb4d6">Encoding during capture cut throughput 47.6 → 17.4 fps (both share the GPU), so capture only stream-copies frames.</text><text x="36" y="352" font-family="ui-monospace, SFMono-Regular, Menlo, Consolas, 'Liberation Mono', monospace" font-size="12" fill="#9fb4d6">Colour: range-only conversion, tagged BT.601 — 156 vs 84 fps encode, within 43.6 dB PSNR of a lossless capture.</text>
</svg>